<!-- Vouivre — boss VOLANT. La plus large silhouette du jeu : envergure pleine,
     cou tendu et queue barbelée. Elle doit se lire comme « aucune catapulte ne
     vous sauvera » dès qu'elle entre à l'écran. -->
<svg xmlns="http://www.w3.org/2000/svg" viewBox="0 0 64 64">
  <g stroke="#241a12" stroke-width="2.6" stroke-linejoin="round" stroke-linecap="round">
    <path d="M28 34 2 20l3 11-5 4 12 8 3-7 13 4z" fill="#3f6b47"/>
    <path d="M36 34 62 20l-3 11 5 4-12 8-3-7-13 4z" fill="#3f6b47"/>
    <path d="M32 52c-4 4-10 5-14 3 3-2 4-5 4-8" fill="none" stroke-width="3.5"/>
    <ellipse cx="32" cy="40" rx="11" ry="13" fill="#2d4f34"/>
    <path d="M30 30c-1-8 2-14 8-17 3 4 3 10 0 15z" fill="#4f8259"/>
    <ellipse cx="40" cy="15" rx="9" ry="7" fill="#4f8259"/>
    <path d="M34 10 30 2l8 4z" fill="#4f8259"/>
  </g>
  <path d="M46 13h6l-3 4z" fill="#f2ede0"/>
  <ellipse cx="41" cy="14" rx="3" ry="2.6" fill="#f5a24a"/>
  <circle cx="41.5" cy="14.2" r="1.3" fill="#241a12"/>
  <path d="M26 38h12v4H26z" fill="#1c3321" opacity="0.8"/>
</svg>
