<!-- Le Bastion — ce qu'on défend. Volontairement le plus gros élément de la
     carte : donjon crénelé, porte cloutée, bannière. Doit se lire comme un
     objectif, pas comme une tour de plus. -->
<svg xmlns="http://www.w3.org/2000/svg" viewBox="0 0 96 96">
  <g stroke="#241a12" stroke-width="3" stroke-linejoin="round">
    <ellipse cx="48" cy="86" rx="34" ry="8" fill="#7d786c"/>
    <path d="M10 44h12v40H10zM74 44h12v40H74z" fill="#a8a294"/>
    <path d="M8 34h16v10H8zM72 34h16v10H72z" fill="#b9b3a4"/>
    <path d="M22 54h52v30H22z" fill="#b9b3a4"/>
    <path d="M22 54h52v7H22z" fill="#8a8577"/>
    <path d="M8 34h4v-7h4v7h4v-7h4v7" fill="#b9b3a4"/>
    <path d="M72 34h4v-7h4v7h4v-7h4v7" fill="#b9b3a4"/>
    <path d="M30 54V44h6v10M46 54V44h6v10M62 54V44h6v10" fill="#b9b3a4"/>
    <path d="M40 66h16v18H40z" fill="#6d4526"/>
  </g>
  <path d="M40 66h16v3H40z" fill="#241a12" opacity="0.5"/>
  <circle cx="44" cy="75" r="1.8" fill="#241a12"/>
  <circle cx="52" cy="75" r="1.8" fill="#241a12"/>
  <path d="M47 6h2v22h-2z" fill="#241a12"/>
  <path d="M49 7h16l-4 5 4 5H49z" fill="#c4453f" stroke="#241a12" stroke-width="2.4" stroke-linejoin="round"/>
  <path d="M14 62h4v8h-4zM78 62h4v8h-4z" fill="#241a12" opacity="0.8"/>
</svg>
