<!-- Gargouille — le volant LOURD. Ailes anguleuses et griffues là où la
     chauve-souris est arrondie : deux volants ne doivent jamais se confondre.
     Gris pierre, trapue, elle a l'air de peser — c'est l'information utile. -->
<svg xmlns="http://www.w3.org/2000/svg" viewBox="0 0 64 64">
  <g stroke="#241a12" stroke-width="2.6" stroke-linejoin="round" stroke-linecap="round">
    <path d="M24 28 4 18l4 12-6 3 10 6 4-6 10 3z" fill="#6f7a85"/>
    <path d="M40 28 60 18l-4 12 6 3-10 6-4-6-10 3z" fill="#6f7a85"/>
    <path d="M22 50h20l-4-14H26z" fill="#4d5761"/>
    <path d="M23 36h18l-3-8H26z" fill="#8a95a1"/>
    <path d="M24 22 21 10l8 7zM40 22l3-12-8 7z" fill="#8a95a1"/>
    <ellipse cx="32" cy="22" rx="10" ry="9" fill="#8a95a1"/>
  </g>
  <ellipse cx="27.5" cy="21" rx="2.8" ry="2.4" fill="#f5b03a"/>
  <ellipse cx="36.5" cy="21" rx="2.8" ry="2.4" fill="#f5b03a"/>
  <circle cx="28" cy="21.2" r="1.2" fill="#241a12"/>
  <circle cx="36" cy="21.2" r="1.2" fill="#241a12"/>
  <path d="M27 27h10l-2 3h-6z" fill="#f2ede0"/>
</svg>
